<svg xmlns="http://www.w3.org/2000/svg" viewBox="0 0 360 260" fill="none">
  <title>Empty cabinet and full-height closet interior cleaning</title>
  <desc>An open shelved cabinet and a floor-to-head-height closet with an empty hanging rail. Blue identifies the empty interiors and clear floor; no clothing or decorative marks.</desc>
  <g stroke-linecap="round" stroke-linejoin="round">
    <polygon points="180,114 48,180 180,246 312,180" fill="#E9EFF6" stroke="none" stroke-width="1.7"/>
    <polygon points="48,180 48,88 180,22 180,114" fill="#F8FAFC" stroke="#0E2A4D" stroke-width="1.4"/>
    <polygon points="180,114 180,22 312,88 312,180" fill="#F8FAFC" stroke="#0E2A4D" stroke-width="1.4"/>
    <polyline points="48,180 180,246 312,180" fill="none" stroke="#0E2A4D" stroke-width="2"/>
    <polyline points="51,173.5 180,109 309,173.5" fill="none" stroke="#AFC2D9" stroke-width="3"/>
    <polygon points="148,126 64,168 64,90 148,48" fill="#AFC2D9" stroke="#0E2A4D" stroke-width="1.7"/>
    <polygon points="64,168 86,179 86,101 64,90" fill="#DCE6F1" stroke="#0E2A4D" stroke-width="1.7"/>
    <polygon points="148,48 64,90 86,101 170,59" fill="white" stroke="#0E2A4D" stroke-width="1.7"/>
    <polygon points="148,126 64,168 86,179 170,137" fill="#AFC2D9" stroke="#0E2A4D" stroke-width="1.7"/>
    <polygon points="148,100 64,142 86,153 170,111" fill="#DCE6F1" stroke="#0E2A4D" stroke-width="1.3"/>
    <polygon points="148,75 64,117 86,128 170,86" fill="#DCE6F1" stroke="#0E2A4D" stroke-width="1.3"/>
    <polygon points="86,179 111,191.5 111,113.5 86,101" fill="white" stroke="#0E2A4D" stroke-width="1.7"/>
    <polygon points="170,137 195,149.5 195,71.5 170,59" fill="white" stroke="#0E2A4D" stroke-width="1.7"/>
    <polyline points="104,154 104,147" fill="none" stroke="#0E2A4D" stroke-width="2"/>
    <polyline points="188,112 188,105" fill="none" stroke="#0E2A4D" stroke-width="2"/>
    <polygon points="248,145 302,172 302,89 248,62" fill="#AFC2D9" stroke="#0E2A4D" stroke-width="1.7"/>
    <polygon points="302,172 288,179 288,96 302,89" fill="#DCE6F1" stroke="#0E2A4D" stroke-width="1.7"/>
    <polygon points="248,62 234,69 288,96 302,89" fill="white" stroke="#0E2A4D" stroke-width="1.7"/>
    <polygon points="248,145 234,152 288,179 302,172" fill="#DCE6F1" stroke="#0E2A4D" stroke-width="1.7"/>
    <polygon points="248,78 234,85 288,112 302,105" fill="#DCE6F1" stroke="#0E2A4D" stroke-width="1.3"/>
    <polyline points="242,93 292,118" fill="none" stroke="#0E2A4D" stroke-width="2.8"/>
    <polyline points="242,93 242,87" fill="none" stroke="#0E2A4D" stroke-width="1.5"/>
    <polyline points="292,118 292,112" fill="none" stroke="#0E2A4D" stroke-width="1.5"/>
    <polyline points="234,152 234,69 288,96 288,179" fill="none" stroke="#0E2A4D" stroke-width="1.7"/>
  </g>
</svg>
